<?xml version="1.0" encoding="utf-8"?>
<svg xmlns="http://www.w3.org/2000/svg"
	xmlns:xlink="http://www.w3.org/1999/xlink"
	width="76px" height="72px" viewBox="0 0 76 72">
<clipPath id="clip0"><path fillRule="evenodd" d="M 38 0C 38 0 50.52 22.63 50.52 22.63 50.52 22.63 75.99 27.5 75.99 27.5 75.99 27.5 58.26 46.36 58.26 46.36 58.26 46.36 61.48 72 61.48 72 61.48 72 38 61.03 38 61.03 38 61.03 14.52 72 14.52 72 14.52 72 17.74 46.36 17.74 46.36 17.74 46.36 0 27.5 0 27.5 0 27.5 25.48 22.63 25.48 22.63 25.48 22.63 38 0 38 0"/></clipPath><defs>
<symbol id="symbol0"><path fillRule="evenodd" d="M 38 0C 38 0 50.52 22.63 50.52 22.63 50.52 22.63 75.99 27.5 75.99 27.5 75.99 27.5 58.26 46.36 58.26 46.36 58.26 46.36 61.48 72 61.48 72 61.48 72 38 61.03 38 61.03 38 61.03 14.52 72 14.52 72 14.52 72 17.74 46.36 17.74 46.36 17.74 46.36 0 27.5 0 27.5 0 27.5 25.48 22.63 25.48 22.63 25.48 22.63 38 0 38 0"/></symbol></defs>
<g><use xlink:href="#symbol0" x="0" y="0" width="76" height="72" fill="rgb(255,185,0)"/><use xlink:href="#symbol0" x="0" y="0" width="76" height="72" fill="none" stroke="rgb(247,161,55)" stroke-width="14.00px" clip-path="url(#clip0)"/></g></svg>